<?xml version="1.0" encoding="UTF-8" standalone="no"?>
<!-- Created with Inkscape (http://www.inkscape.org/) -->

<svg
   xmlns:dc="http://purl.org/dc/elements/1.1/"
   xmlns:cc="http://creativecommons.org/ns#"
   xmlns:rdf="http://www.w3.org/1999/02/22-rdf-syntax-ns#"
   xmlns:svg="http://www.w3.org/2000/svg"
   xmlns="http://www.w3.org/2000/svg"
   xmlns:sodipodi="http://sodipodi.sourceforge.net/DTD/sodipodi-0.dtd"
   xmlns:inkscape="http://www.inkscape.org/namespaces/inkscape"
   width="219mm"
   height="229mm"
   viewBox="0 0 219 229"
   version="1.1"
   id="svg8"
   inkscape:version="0.92.4 (5da689c313, 2019-01-14)"
   sodipodi:docname="drawing.svg">
  <defs
     id="defs2" />
  <sodipodi:namedview
     id="base"
     pagecolor="#ffffff"
     bordercolor="#666666"
     borderopacity="1.0"
     inkscape:pageopacity="0.0"
     inkscape:pageshadow="2"
     inkscape:zoom="0.175"
     inkscape:cx="-684.00819"
     inkscape:cy="1572.2806"
     inkscape:document-units="mm"
     inkscape:current-layer="layer1"
     showgrid="false"
     showborder="true"
     inkscape:window-width="1920"
     inkscape:window-height="1057"
     inkscape:window-x="-8"
     inkscape:window-y="-8"
     inkscape:window-maximized="1"
     width="840mm" />
  <metadata
     id="metadata5">
    <rdf:RDF>
      <cc:Work
         rdf:about="">
        <dc:format>image/svg+xml</dc:format>
        <dc:type
           rdf:resource="http://purl.org/dc/dcmitype/StillImage" />
        <dc:title></dc:title>
      </cc:Work>
    </rdf:RDF>
  </metadata>
  <g
     inkscape:label="Layer 1"
     inkscape:groupmode="layer"
     id="layer1"
     transform="translate(0,-68)">
    <path
       style="fill:#000000;stroke-width:1.83447766"
       d="m 98.537193,272.83383 c -5.94025,-10.4015 -11.04848,-19.89472 -11.35156,-21.09604 -0.34473,-1.36642 3.88969,-0.5426 11.30952,2.20033 l 11.860557,4.38454 7.56895,-13.37235 c 19.02393,-33.61043 19.78217,-34.66248 24.98155,-34.66248 2.97296,0 6.84009,-2.01288 9.78105,-5.09111 7.15394,-7.48788 12.5125,-11.97719 13.31752,-11.1573 1.00485,1.02337 -53.77613,97.70623 -55.36077,97.70623 -0.71845,0 -6.16651,-8.51028 -12.106817,-18.91182 z M 80.605197,240.37214 c -14.98553,-8.13841 -28.04427,-20.87172 -33.47718,-32.64291 -2.17026,-4.70211 -5.11029,-8.54929 -6.53344,-8.54929 -3.90001,0 -8.3479,5.33198 -9.54871,11.44675 -3.24771,16.53792 -9.233,-21.29716 -6.25705,-39.55287 1.04875,-6.43343 2.47634,-13.69811 3.17243,-16.14373 l 1.26552,-4.44659 -7.78918,4.44659 c -4.28409,2.44562 -10.13803,7.34395 -13.0087601,10.88517 -5.77474,7.12348 -6.67066,5.31044 -2.45428,-4.96682 4.5835801,-11.1724 14.3047501,-21.55318 30.6879201,-32.77022 9.86617,-6.75509 22.77951,-18.36078 35.3696,-31.787965 C 82.938483,84.65864 92.365273,75.14185 92.980473,75.14185 c 0.61519,0 1.20003,4.79028 1.29969,10.64506 0.0994,5.854785 0.71314,12.503845 1.36332,14.7757 1.16516,4.07108 1.29727,4.03772 9.163637,-2.314145 4.38978,-3.54463 8.74941,-6.44478 9.68809,-6.44478 1.00681,0 1.22539,4.7447 0.53306,11.570715 l -1.1736,11.57072 12.39012,6.90061 c 18.57203,10.34358 17.76454,9.52716 14.47684,14.63737 -1.56269,2.42894 -2.21895,5.44171 -1.45839,6.69504 1.39326,2.29593 19.27652,7.51117 39.98218,11.65988 6.15811,1.23388 11.19662,2.77473 11.19662,3.42411 0,5.56696 -21.02389,29.80992 -25.85165,29.80992 -1.81513,0 -12.31829,-2.96908 -23.34029,-6.59796 -22.26623,-7.33093 -27.76597,-7.57479 -28.64519,-1.27012 -0.5194,3.72471 0.18911,4.16546 6.69792,4.16546 7.04754,0 28.81694,4.04355 35.18322,6.5351 2.65663,1.03972 2.11018,2.20886 -3.63561,7.77856 l -6.76212,6.55492 -9.99788,-2.24496 c -22.40422,-5.03074 -24.14293,-4.89132 -30.46578,2.44277 -8.870597,10.28935 -11.520427,25.90308 -6.608467,38.9395 1.71815,4.55988 -2.56924,3.51406 -16.410996,-4.00318 z m 97.566733,-90.63291 c -2.2495,-0.44129 -4.09003,-1.30182 -4.09003,-1.91234 0,-0.61052 2.45402,-5.5385 5.45336,-10.95108 2.9994,-5.41258 5.45342,-10.27022 5.45342,-10.79476 0,-0.52452 -9.53933,-0.9537 -21.19852,-0.9537 -21.16957,0 -21.21419,-0.009 -32.72029,-6.86426 -6.33697,-3.77535 -11.52177,-7.94081 -11.52177,-9.25658 0,-1.89554 10.03431,-2.39231 48.32297,-2.39231 26.57769,0 48.05039,0.66712 47.7171,1.48248 -0.33338,0.81537 -5.79319,10.81247 -12.13325,22.21579 -12.29623,22.11631 -12.14896,22.00313 -25.28299,19.42676 z M 17.085017,128.36715 C 8.7702569,114.88107 5.0271069,108.42705 5.0271069,107.57664 c 0,-0.52934 10.6340901,-0.96244 23.6313101,-0.96244 13.73098,0 23.63131,0.73762 23.63131,1.76064 0,1.57521 -29.71718,24.15777 -31.79005,24.15777 -0.46581,0 -2.00212,-1.87445 -3.41466,-4.16546 z"
       id="path198"
       inkscape:connector-curvature="0"
       inkscape:export-xdpi="96"
       inkscape:export-ydpi="96"
       inkscape:transform-center-x="193.52381"
       inkscape:transform-center-y="116.41663" />
  </g>
</svg>
