<?xml version="1.0" encoding="utf-8"?>
<!-- Generator: Adobe Illustrator 23.1.0, SVG Export Plug-In . SVG Version: 6.00 Build 0)  -->
<svg version="1.1" id="Camada_1" xmlns="http://www.w3.org/2000/svg" xmlns:xlink="http://www.w3.org/1999/xlink" x="0px" y="0px"
	 viewBox="0 0 1920 1080" style="enable-background:new 0 0 1920 1080;" xml:space="preserve">
<g>
	<path d="M973.59,529.32c-0.96,1.74-1.66,3.23-2.54,4.6c-4.75,7.33-6.61,8.02-14.79,5.42c-2.99-0.95-5.87-2.36-8.92-2.99
		c-1.47-0.31-3.21,0.7-4.83,1.11c0.13,0.44,0.27,0.88,0.4,1.32c5.86,1.08,11.73,2.17,17.98,3.32c-3.67,4.49-6.88,6.35-12.11,4.52
		c-8.12-2.85-14.18,2.97-12.81,11.67c0.3,1.92,0.86,3.81,1.34,5.89c-12.02-4.23-15.73-7.38-22.79-19.63
		c-1.78,2.44-3.3,4.51-5.69,7.77c0-8.88,0-16.76,0-25.14c-2.97,2.22-5.92,4.43-8.87,6.64c-0.34-0.21-0.69-0.43-1.03-0.64
		c2.68-3.73,4.62-8.51,8.17-10.98c9.99-6.96,19.25-14.53,26.7-24.21c0.15-0.2,2.38,6.6,2.97,10.89c2.38-1.91,4.3-3.45,7.86-6.3
		c-3.88,11.19,3.91,12.96,10.02,16.25c-0.43,1.59-0.84,3.08-1.45,5.31C960.04,525.87,966.56,527.53,973.59,529.32z"/>
	<path d="M971.36,517.03c-9.19-1.31-19.05,2.28-26.12-7c12.96,0,25.25,0,38.48,0c-3.46,5.99-6.75,11.7-10.17,17.63
		c-2.42-0.84-4.52-1.56-6.8-2.35C968.27,522.55,969.67,520.04,971.36,517.03z"/>
	<path d="M942.08,582.03c-3.41-5.91-6.36-11.02-9.93-17.22c3.89,1.09,6.65,1.86,10.05,2.81c4.51-10.27,10.77-19.28,22.26-24.49
		C956.99,556.12,949.76,568.69,942.08,582.03z"/>
	<path d="M900.11,509.84c7.04,0,12.94,0,20.49,0c-5.27,3.88-9.46,6.96-14.09,10.36C904.4,516.79,902.54,513.77,900.11,509.84z"/>
</g>
</svg>
