<?xml version="1.0" encoding="utf-8"?>
<!-- Generator: Adobe Illustrator 23.1.0, SVG Export Plug-In . SVG Version: 6.00 Build 0)  -->
<svg version="1.1" id="Camada_1" xmlns="http://www.w3.org/2000/svg" xmlns:xlink="http://www.w3.org/1999/xlink" x="0px" y="0px"
	 viewBox="0 0 6522.6 3668.96" style="enable-background:new 0 0 6522.6 3668.96;" xml:space="preserve">
<g>
	<path d="M4015.11,1613.35c-26.45,48.17-45.82,89.22-70.27,126.98c-131.1,202.48-182.53,221.55-408.32,149.65
		c-82.6-26.3-162.11-65.06-246.26-82.55c-40.6-8.44-88.69,19.22-133.4,30.54c3.72,12.19,7.44,24.39,11.16,36.58
		c161.96,29.92,323.91,59.84,496.49,91.72c-101.47,123.98-190.03,175.37-334.48,124.71c-224.1-78.59-391.54,81.98-353.85,322.24
		c8.33,53.1,23.76,105.09,37.09,162.65c-331.9-116.94-434.38-203.71-629.24-541.93c-49.25,67.27-91.22,124.61-157,214.45
		c0-245.23,0-462.71,0-694.31c-81.94,61.29-163.49,122.28-245.04,183.28c-9.47-5.89-18.93-11.79-28.4-17.68
		c73.96-102.94,127.67-234.92,225.73-303.28c275.85-192.3,531.53-401.28,737.18-668.63c4.2-5.46,65.7,182.33,82,300.76
		c65.79-52.68,118.82-95.15,217.13-173.89c-107.22,309.13,108.04,357.96,276.62,448.74c-11.97,43.89-23.22,85.1-39.99,146.58
		C3640.91,1518.02,3821.04,1563.91,4015.11,1613.35z"/>
	<path d="M3953.43,1273.9c-253.83-36.05-525.97,63.03-721.4-193.33c357.78,0,697.14,0,1062.59,0
		c-95.53,165.52-186.49,323.12-280.93,486.76c-66.71-23.09-124.79-43.19-187.85-65.02
		C3868.2,1426.46,3906.88,1357.21,3953.43,1273.9z"/>
	<path d="M3144.95,3068.92c-94.1-163.12-175.6-304.4-274.27-475.44c107.52,30.09,183.51,51.36,277.61,77.7
		c124.49-283.51,297.53-532.38,614.66-676.14C3556.67,2353.5,3356.93,2700.57,3144.95,3068.92z"/>
	<path d="M1985.89,1075.44c194.47,0,357.22,0,565.69,0c-145.55,107.05-261.32,192.2-388.99,286.09
		C2104.43,1267.38,2052.99,1184.09,1985.89,1075.44z"/>
</g>
</svg>
