<?xml version="1.0" encoding="utf-8"?>
<!-- Generator: Adobe Illustrator 23.1.0, SVG Export Plug-In . SVG Version: 6.00 Build 0)  -->
<svg version="1.1" id="Camada_1" xmlns="http://www.w3.org/2000/svg" xmlns:xlink="http://www.w3.org/1999/xlink" x="0px" y="0px"
	 viewBox="0 0 1920 1080" style="enable-background:new 0 0 1920 1080;" xml:space="preserve">
<g>
	<path d="M999.66,397.85c-9.25,16.84-16.02,31.19-24.57,44.39c-45.83,70.79-63.81,77.45-142.75,52.32
		c-28.88-9.2-56.67-22.74-86.09-28.86c-14.19-2.95-31.01,6.72-46.64,10.68c1.3,4.26,2.6,8.53,3.9,12.79
		c56.62,10.46,113.24,20.92,173.57,32.06c-35.47,43.34-66.44,61.31-116.93,43.6c-78.34-27.48-136.88,28.66-123.71,112.66
		c2.91,18.56,8.3,36.74,12.97,56.86c-116.03-40.88-151.86-71.22-219.98-189.46c-17.22,23.52-31.89,43.56-54.89,74.97
		c0-85.73,0-161.76,0-242.73c-28.65,21.43-57.16,42.75-85.67,64.08c-3.31-2.06-6.62-4.12-9.93-6.18
		c25.86-35.99,44.63-82.13,78.92-106.03c96.44-67.23,185.82-140.29,257.72-233.75c1.47-1.91,22.97,63.74,28.67,105.15
		c23-18.42,41.54-33.27,75.91-60.79c-37.49,108.07,37.77,125.14,96.71,156.88c-4.19,15.34-8.12,29.75-13.98,51.24
		C868.83,364.52,931.81,380.57,999.66,397.85z"/>
	<path d="M978.09,279.18c-88.74-12.6-183.88,22.04-252.2-67.59c125.08,0,243.72,0,371.48,0c-33.4,57.87-65.2,112.96-98.21,170.17
		c-23.32-8.07-43.63-15.1-65.67-22.73C948.29,332.51,961.82,308.3,978.09,279.18z"/>
	<path d="M695.44,906.72c-32.9-57.03-61.39-106.42-95.88-166.21c37.59,10.52,64.15,17.96,97.05,27.16
		c43.52-99.11,104.02-186.12,214.89-236.38C839.38,656.61,769.55,777.94,695.44,906.72z"/>
	<path d="M290.24,209.8c67.99,0,124.89,0,197.76,0c-50.88,37.42-91.36,67.19-135.99,100.02C331.68,276.9,313.69,247.78,290.24,209.8
		z"/>
</g>
</svg>
